<svg width="165" height="86" viewBox="0 0 165 86" fill="none" xmlns="http://www.w3.org/2000/svg">
<path d="M113.515 69.4974H111.117L107.198 67.1989V69.4974H105.651V64.4097H107.198V66.4757L110.859 64.4097H113.051L108.745 66.7598L113.515 69.4974Z" fill="white"/>
<path d="M116.325 69.4974H114.804V64.4097H116.325V69.4974Z" fill="white"/>
<path d="M125.864 65.3136H122.822V69.4715H121.301V65.3136H118.284V64.4097H125.838V65.3136H125.864Z" fill="white"/>
<path d="M134.294 68.2835C134.294 68.7742 134.165 69.0841 133.933 69.2391C133.701 69.3941 133.263 69.4715 132.644 69.4715H128.751C128.132 69.4715 127.72 69.3941 127.488 69.2391C127.256 69.0841 127.127 68.7484 127.127 68.2835V65.5977C127.127 65.107 127.256 64.7971 127.488 64.6421C127.72 64.4871 128.158 64.4097 128.751 64.4097H132.644C133.418 64.4097 133.907 64.5388 134.088 64.7971C134.217 64.9778 134.268 65.4169 134.268 66.0883L132.721 66.2691V65.3394H128.648V68.516H132.747V67.4313L134.294 67.6896V68.2835Z" fill="white"/>
<path d="M144.607 69.4974H143.086V67.3538H138.316V69.4974H136.77V64.4097H138.316V66.3466H143.086V64.4097H144.607V69.4974Z" fill="white"/>
<path d="M154.172 69.4974H147.392V64.4097H154.095V65.3136H148.913V66.4241H151.929V67.3022H148.913V68.5418H154.172V69.4974Z" fill="white"/>
<path d="M164.123 69.4974H163.066L157.781 66.0625V69.4974H156.389V64.4097H157.446L162.757 67.7929V64.4097H164.123V69.4974Z" fill="white"/>
<path d="M36.532 20.1184C36.4289 20.2475 36.3258 20.3508 36.2227 20.48C33.4641 23.295 30.5508 25.8776 26.8641 27.4271C25.4203 28.0211 23.925 28.4085 22.3523 28.486C21.9914 28.5118 21.8367 28.3827 21.7078 28.0469C20.4961 24.8703 19.8258 21.6163 19.568 18.2331C19.3359 15.3406 19.9805 12.6547 20.9859 10.0205C21.0891 9.71059 21.2695 9.4265 21.3984 9.14242C21.3211 9.09077 21.2695 9.03911 21.1922 8.98746C21.1406 9.11659 21.1148 9.24572 21.0375 9.34902C19.0523 12.0349 17.9695 15.0565 18.0727 18.3881C18.1242 20.0926 18.5367 21.7971 18.8977 23.4758C19.2328 25.0511 19.6969 26.5749 20.0578 28.1761C16.7578 22.2619 11.9109 18.3881 5.28516 16.8385C5.25938 16.8902 5.20781 16.9418 5.18203 16.9935C5.31094 17.0709 5.46563 17.1742 5.59453 17.2259C9.10078 19.0595 12.375 21.2031 15.1594 24.0181C16.5 25.361 17.6602 26.8589 18.4078 28.6151C18.4852 28.77 18.5367 28.9508 18.6141 29.1316C18.6398 29.1833 18.6141 29.2349 18.6398 29.364C18.0727 29.2349 17.5312 29.1058 16.9898 29.0025C16.0359 28.8217 15.082 28.5893 14.1281 28.4601C12.6586 28.2535 11.3438 28.7442 10.1578 29.5706C8.94609 30.3971 8.01797 31.4559 7.34766 32.8247C7.47656 32.7214 7.60547 32.6181 7.73438 32.5148C8.32734 31.9983 8.89453 31.4301 9.53906 30.9394C10.957 29.8289 12.607 29.5965 14.3344 29.9064C14.3859 29.9064 14.4375 29.9322 14.4633 29.958C14.4891 29.9839 14.5148 30.0097 14.5922 30.0355C13.5609 31.8691 12.4523 33.6253 10.5188 34.6325C8.94609 35.4589 6.62578 35.3556 5.31094 34.4259C6.29063 32.3598 7.34766 30.2938 8.99766 28.6409C9.79688 27.8403 10.7766 27.3755 11.8852 27.0655C11.7305 26.9881 11.6016 26.9106 11.4469 26.8331C8.35313 25.2319 5.59453 23.2691 3.48047 20.4541C2.24297 18.8271 1.41797 16.9935 0.953906 14.9791C0.928125 14.8499 0.928125 14.7208 0.902344 14.54C6.52266 14.3592 11.6016 15.7022 16.0359 19.4469C15.9844 18.9821 15.9586 18.6721 15.907 18.3364C15.6492 15.9088 16.1648 13.6619 17.325 11.5442C18.6914 9.06494 20.5219 6.9214 22.5844 4.90698C24.1828 7.10218 25.1109 9.50398 25.3945 12.164C25.7039 14.8499 25.1109 17.355 23.7445 19.7827C23.8992 19.731 23.9508 19.731 23.9766 19.7052C25.5492 18.0265 27.5602 17.0709 29.6227 16.167C31.9688 15.1598 34.3148 14.1785 36.6094 13.0421C38.4141 12.164 40.0125 10.9761 41.3273 9.45233C41.7141 9.01329 42.0492 8.54842 42.3328 8.03191C42.6164 7.54122 42.8484 6.99887 43.0805 6.50818C43.0805 7.38626 43.132 8.29017 43.0805 9.2199C42.6164 15.1857 40.8375 20.7382 37.6664 25.8517C36.6094 27.5562 35.5523 29.2607 34.0828 30.6553C33.4641 31.2493 32.768 31.7658 32.0719 32.3857C34.1602 34.0385 35.1656 36.2595 35.2687 38.9712C33.2836 38.9712 31.35 38.9712 29.3906 38.9712C29.3391 38.7646 29.2875 38.5322 29.2359 38.2998C28.9008 36.7761 28.0242 35.743 26.4773 35.3815C25.0078 35.0199 23.5383 34.9941 22.0945 35.5106C21.6562 35.6655 21.218 35.9238 20.857 36.2079C19.5422 37.2926 19.6711 39.0746 21.0891 39.9785C22.1719 40.6758 23.4094 40.934 24.6211 41.2439C26.6836 41.7863 28.7461 42.3028 30.7828 42.9484C31.7367 43.2583 32.6133 43.8007 33.4383 44.3688C35.3203 45.6601 36.1711 47.5712 36.2484 49.8181C36.3516 52.8139 35.3719 55.319 32.8453 57.0751C31.4273 58.0824 29.8289 58.6505 28.1273 58.9604C24.9305 59.5544 21.7594 59.4511 18.7172 58.2115C15.6234 56.9718 13.5867 54.7767 12.9164 51.4193C12.8391 51.0577 12.7875 50.6962 12.7617 50.3346C12.7359 50.0505 12.7617 49.7664 12.7617 49.4565C12.9164 49.4307 13.0711 49.4307 13.2258 49.4307C14.9531 49.4307 16.7063 49.4307 18.4336 49.4307C18.743 49.4307 18.9234 49.4824 18.975 49.8439C19.3102 52.2199 20.8055 53.7694 23.2289 54.1827C24.7758 54.4667 26.2969 54.3893 27.7664 53.7953C28.8234 53.3562 29.6742 52.6848 29.9062 51.4451C30.0867 50.4121 29.7516 49.5082 28.875 48.9917C27.9469 48.4493 26.9156 48.0103 25.8844 47.7004C23.8477 47.0806 21.7594 46.5899 19.7484 45.97C18.0727 45.4535 16.5258 44.6529 15.3141 43.3358C14.257 42.1736 13.7672 40.7791 13.6641 39.2295C13.4062 34.8649 16.0359 32.4373 18.7945 31.1977C20.5477 30.4229 22.3781 30.2421 24.2344 30.1388C24.7758 30.113 25.343 30.0613 25.8328 29.8806C30.1641 28.3052 33.5156 25.5418 35.8875 21.5905C36.1453 21.1773 36.3516 20.764 36.5836 20.325C36.6094 20.2992 36.6094 20.2733 36.6094 20.2217C36.5836 20.17 36.5578 20.1442 36.532 20.1184Z" fill="white"/>
<path d="M114.83 56.5327C114.83 57.23 114.83 57.8757 114.83 58.573C112.793 58.573 110.782 58.573 108.771 58.573C108.771 48.2685 108.771 37.9639 108.771 27.6336C108.952 27.6336 109.107 27.6078 109.261 27.6078C110.937 27.6078 112.613 27.6336 114.289 27.6078C114.753 27.6078 114.856 27.7627 114.856 28.2018C114.83 32.773 114.856 37.3183 114.856 41.8895C114.856 42.0961 114.856 42.3027 114.856 42.6642C115.088 42.4576 115.191 42.3802 115.268 42.2769C116.557 40.9339 118.156 40.3141 119.961 40.0817C125.194 39.436 129.139 43.2582 129.989 47.597C131.021 52.8654 127.772 57.7465 123.132 58.8054C120.889 59.3219 118.671 59.0636 116.635 57.9531C116.016 57.5657 115.475 57.0234 114.83 56.5327ZM123.647 49.5081C123.647 46.9772 121.688 44.9111 119.264 44.8853C116.893 44.8853 114.856 46.9772 114.856 49.4823C114.83 52.0132 116.841 54.1051 119.29 54.1051C121.688 54.1051 123.647 52.039 123.647 49.5081Z" fill="white"/>
<path d="M98.5876 58.573C98.5876 57.8757 98.5876 57.2042 98.5876 56.5327C98.5103 56.5327 98.4587 56.5327 98.4587 56.5327C97.2728 58.0048 95.6228 58.5988 93.8181 58.8571C91.1884 59.2444 88.765 58.6763 86.7025 56.9459C84.4337 55.0348 83.2994 52.5556 83.2478 49.5856C83.1704 45.4276 85.7486 41.6054 89.5384 40.3916C92.1681 39.5393 94.7204 39.7718 97.0923 41.2697C97.6079 41.6054 98.0204 42.0444 98.5361 42.4835C98.5361 37.5249 98.5361 32.5922 98.5361 27.6078C98.7423 27.582 98.897 27.5562 99.0517 27.5562C100.753 27.5562 102.455 27.5562 104.156 27.5562C104.517 27.5562 104.672 27.6336 104.672 28.0468C104.672 38.0931 104.672 48.1135 104.672 58.1598C104.672 58.2631 104.646 58.3922 104.646 58.5471C102.661 58.573 100.676 58.573 98.5876 58.573ZM98.5876 49.5339C98.5876 46.9772 96.6025 44.9111 94.179 44.9111C91.7814 44.9111 89.7704 46.9772 89.7704 49.4823C89.7704 52.0649 91.704 54.1051 94.1533 54.1309C96.6283 54.1051 98.5876 52.0649 98.5876 49.5339Z" fill="white"/>
<path d="M26.2197 61.7754C26.8127 61.7237 27.3799 61.7237 27.9471 61.5946C28.4885 61.4655 29.0041 61.2072 29.5713 61.0006C29.6486 61.1298 29.726 61.2847 29.8033 61.4138C35.6814 71.6409 44.3697 78.0715 55.8166 80.7574C58.9619 81.5063 62.1588 81.8679 65.3557 81.7129C80.3088 81.0415 91.7299 74.3526 99.3611 61.388C99.5416 61.0781 99.7221 60.949 100.083 60.949C101.166 60.9748 102.223 60.949 103.409 60.949C100.831 66.2433 97.376 70.7628 92.9932 74.5334C85.8002 80.7057 77.4471 84.2439 68.0111 84.9412C46.4064 86.5682 31.5822 73.1129 26.2197 61.7754Z" fill="white"/>
<path d="M58.6006 50.2571C53.8568 50.2571 49.1904 50.2571 44.5498 50.2571C44.1631 51.755 45.6068 53.9243 47.2826 54.4667C48.881 54.9832 51.5623 54.415 52.1553 51.9099C54.192 51.9099 56.2029 51.9099 58.317 51.9099C58.2396 52.2198 58.1623 52.5039 58.085 52.788C57.1826 55.448 55.4295 57.3333 52.7998 58.2631C49.5514 59.3994 46.2771 59.2703 43.1318 57.824C40.167 56.4552 38.4654 54.0534 38.0787 50.7736C37.46 45.5568 40.631 41.2438 45.8389 40.2366C48.5201 39.7201 51.1498 39.8492 53.6506 41.0372C56.667 42.4577 58.3685 44.8595 58.6264 48.2168C58.6521 48.8883 58.6006 49.5339 58.6006 50.2571ZM48.649 47.4162C49.8607 47.4162 51.0982 47.4162 52.3099 47.4162C52.5678 47.4162 52.8256 47.442 52.7225 47.0288C52.4131 45.7634 51.7943 44.7303 50.531 44.2655C49.835 44.0072 49.0615 43.9297 48.3139 43.9039C46.4576 43.8781 45.0654 45.0402 44.6014 46.8222C44.4725 47.3387 44.524 47.4162 45.0396 47.4162C46.2514 47.4162 47.4631 47.4162 48.649 47.4162Z" fill="white"/>
<path d="M67.1855 50.257C66.9277 52.0649 68.3973 54.1309 70.2019 54.57C71.8004 54.9573 74.2496 54.3117 74.791 51.9357C76.8277 51.9357 78.8387 51.9357 80.9012 51.9357C80.9012 52.039 80.9012 52.1423 80.8754 52.2198C80.0762 55.1898 78.2715 57.2817 75.384 58.2889C72.1098 59.4252 68.8355 59.2961 65.6902 57.7982C62.7769 56.4036 61.1012 54.0534 60.7144 50.7994C60.0957 45.5567 63.2668 41.2697 68.4746 40.2624C71.2848 39.7201 74.0433 39.9009 76.6473 41.2438C79.4574 42.7159 81.0043 45.0661 81.2879 48.2426C81.3137 48.63 81.3394 48.9916 81.3394 49.379C81.3394 49.6631 81.2879 49.9471 81.2363 50.2829C76.5183 50.257 71.8519 50.257 67.1855 50.257ZM75.384 47.3646C75.4613 45.2985 73.4504 43.7748 70.8723 43.8781C68.9129 43.9555 67.0824 45.6859 67.2887 47.3646C69.9699 47.3646 72.6769 47.3646 75.384 47.3646Z" fill="white"/>
<path d="M142.674 59.012C139.657 58.9345 137.105 58.2631 135.017 56.3778C133.315 54.8282 132.387 52.8913 132.155 50.5928C131.562 44.9628 135.584 40.9856 140.482 40.2366C143.731 39.746 146.721 40.3141 149.325 42.3544C151.903 44.3946 152.96 47.1321 152.728 50.412C152.419 54.8799 149.042 58.1339 144.504 58.8054C143.808 58.9087 143.112 58.9604 142.674 59.012ZM138.136 49.5081C138.188 50.0763 138.213 50.5412 138.291 51.006C138.6 52.633 139.451 53.8469 141.127 54.2342C141.745 54.3892 142.416 54.415 143.035 54.3634C144.659 54.2859 145.922 53.3045 146.335 51.755C146.567 50.8511 146.67 49.8955 146.644 48.9658C146.567 46.4865 145.071 45.0144 142.622 44.8595C140.456 44.7303 138.858 45.8667 138.342 47.9844C138.239 48.5009 138.213 49.0691 138.136 49.5081Z" fill="white"/>
<path d="M103.434 25.1544C102.377 25.1544 101.397 25.1286 100.392 25.1802C99.8248 25.206 99.567 25.0252 99.2834 24.5346C93.5342 14.5141 85.0006 8.16098 73.8115 5.3718C70.6404 4.5712 67.392 4.23546 64.1178 4.28711C57.724 4.39041 51.6912 5.86249 46.0193 8.80663C45.8389 8.90993 45.6584 8.98741 45.4264 9.09072C45.3748 8.90993 45.3232 8.78081 45.3232 8.65168C45.3748 7.61864 45.4264 6.55978 45.5037 5.52675C45.5295 5.3718 45.7357 5.19102 45.8904 5.11354C48.5717 3.82225 51.3818 2.84087 54.2693 2.14357C58.317 1.16219 62.4162 0.748973 66.567 0.95558C82.1131 1.70453 96.1639 10.6144 103.176 24.6379C103.279 24.7928 103.331 24.9478 103.434 25.1544Z" fill="white"/>
<path d="M155.873 27.6078C156.26 27.6078 156.621 27.6078 156.982 27.6078C158.425 27.6078 159.895 27.6336 161.339 27.6078C161.803 27.6078 161.957 27.7111 161.957 28.2018C161.932 32.2564 161.957 36.2853 161.957 40.3399C161.957 46.2024 161.957 52.0648 161.957 57.9531C161.957 58.1597 161.957 58.3405 161.957 58.5988C159.921 58.5988 157.91 58.5988 155.873 58.5988C155.873 48.2684 155.873 37.9898 155.873 27.6078Z" fill="white"/>
</svg>
