<?xml version="1.0" encoding="utf-8"?>
<!-- Generator: Adobe Illustrator 24.0.2, SVG Export Plug-In . SVG Version: 6.00 Build 0)  -->
<svg version="1.1" id="Layer_1" xmlns="http://www.w3.org/2000/svg" xmlns:xlink="http://www.w3.org/1999/xlink" x="0px" y="0px"
	 viewBox="0 0 640 333" style="enable-background:new 0 0 640 333;" xml:space="preserve">
<style type="text/css">
	.st0{fill:#389A00;}
</style>
<g>
	<g>
		<path class="st0" d="M440.3,269.1H431l-15.2-8.9v8.9h-6v-19.7h6v8l14.2-8h8.5l-16.7,9.1L440.3,269.1z"/>
		<path class="st0" d="M451.2,269.1h-5.9v-19.7h5.9V269.1z"/>
		<path class="st0" d="M488.2,252.9h-11.8v16.1h-5.9v-16.1h-11.7v-3.5h29.3V252.9z"/>
		<path class="st0" d="M520.9,264.4c0,1.9-0.5,3.1-1.4,3.7c-0.9,0.6-2.6,0.9-5,0.9h-15.1c-2.4,0-4-0.3-4.9-0.9
			c-0.9-0.6-1.4-1.9-1.4-3.7V254c0-1.9,0.5-3.1,1.4-3.7c0.9-0.6,2.6-0.9,4.9-0.9h15.1c3,0,4.9,0.5,5.6,1.5c0.5,0.7,0.7,2.4,0.7,5
			l-6,0.7V253H499v12.3h15.9v-4.2l6,1V264.4z"/>
		<path class="st0" d="M560.9,269.1H555v-8.3h-18.5v8.3h-6v-19.7h6v7.5H555v-7.5h5.9V269.1z"/>
		<path class="st0" d="M598,269.1h-26.3v-19.7h26v3.5h-20.1v4.3h11.7v3.4h-11.7v4.8H598V269.1z"/>
		<path class="st0" d="M636.6,269.1h-4.1L612,255.8v13.3h-5.4v-19.7h4.1l20.6,13.1v-13.1h5.3V269.1z"/>
	</g>
	<g>
		<g>
			<path class="st0" d="M141.7,77.9c-0.4,0.5-0.8,0.9-1.2,1.4c-10.7,10.9-22,20.9-36.3,26.9c-5.6,2.3-11.4,3.8-17.5,4.1
				c-1.4,0.1-2-0.4-2.5-1.7c-4.7-12.3-7.3-24.9-8.3-38C75,59.4,77.5,49,81.4,38.8c0.4-1.2,1.1-2.3,1.6-3.4c-0.3-0.2-0.5-0.4-0.8-0.6
				c-0.2,0.5-0.3,1-0.6,1.4c-7.7,10.4-11.9,22.1-11.5,35c0.2,6.6,1.8,13.2,3.2,19.7c1.3,6.1,3.1,12,4.5,18.2
				C65,86.2,46.2,71.2,20.5,65.2c-0.1,0.2-0.3,0.4-0.4,0.6c0.5,0.3,1.1,0.7,1.6,0.9C35.3,73.8,48,82.1,58.8,93
				c5.2,5.2,9.7,11,12.6,17.8c0.3,0.6,0.5,1.3,0.8,2c0.1,0.2,0,0.4,0.1,0.9c-2.2-0.5-4.3-1-6.4-1.4c-3.7-0.7-7.4-1.6-11.1-2.1
				c-5.7-0.8-10.8,1.1-15.4,4.3c-4.7,3.2-8.3,7.3-10.9,12.6c0.5-0.4,1-0.8,1.5-1.2c2.3-2,4.5-4.2,7-6.1c5.5-4.3,11.9-5.2,18.6-4
				c0.2,0,0.4,0.1,0.5,0.2c0.1,0.1,0.2,0.2,0.5,0.3c-4,7.1-8.3,13.9-15.8,17.8c-6.1,3.2-15.1,2.8-20.2-0.8c3.8-8,7.9-16,14.3-22.4
				c3.1-3.1,6.9-4.9,11.2-6.1c-0.6-0.3-1.1-0.6-1.7-0.9c-12-6.2-22.7-13.8-30.9-24.7c-4.8-6.3-8-13.4-9.8-21.2
				c-0.1-0.5-0.1-1-0.2-1.7c21.8-0.7,41.5,4.5,58.7,19c-0.2-1.8-0.3-3-0.5-4.3c-1-9.4,1-18.1,5.5-26.3c5.3-9.6,12.4-17.9,20.4-25.7
				c6.2,8.5,9.8,17.8,10.9,28.1c1.2,10.4-1.1,20.1-6.4,29.5c0.6-0.2,0.8-0.2,0.9-0.3c6.1-6.5,13.9-10.2,21.9-13.7
				c9.1-3.9,18.2-7.7,27.1-12.1c7-3.4,13.2-8,18.3-13.9c1.5-1.7,2.8-3.5,3.9-5.5c1.1-1.9,2-4,2.9-5.9c0,3.4,0.2,6.9,0,10.5
				c-1.8,23.1-8.7,44.6-21,64.4c-4.1,6.6-8.2,13.2-13.9,18.6c-2.4,2.3-5.1,4.3-7.8,6.7c8.1,6.4,12,15,12.4,25.5
				c-7.7,0-15.2,0-22.8,0c-0.2-0.8-0.4-1.7-0.6-2.6c-1.3-5.9-4.7-9.9-10.7-11.3c-5.7-1.4-11.4-1.5-17,0.5c-1.7,0.6-3.4,1.6-4.8,2.7
				c-5.1,4.2-4.6,11.1,0.9,14.6c4.2,2.7,9,3.7,13.7,4.9c8,2.1,16,4.1,23.9,6.6c3.7,1.2,7.1,3.3,10.3,5.5c7.3,5,10.6,12.4,10.9,21.1
				c0.4,11.6-3.4,21.3-13.2,28.1c-5.5,3.9-11.7,6.1-18.3,7.3c-12.4,2.3-24.7,1.9-36.5-2.9c-12-4.8-19.9-13.3-22.5-26.3
				c-0.3-1.4-0.5-2.8-0.6-4.2c-0.1-1.1,0-2.2,0-3.4c0.6-0.1,1.2-0.1,1.8-0.1c6.7,0,13.5,0,20.2,0c1.2,0,1.9,0.2,2.1,1.6
				c1.3,9.2,7.1,15.2,16.5,16.8c6,1.1,11.9,0.8,17.6-1.5c4.1-1.7,7.4-4.3,8.3-9.1c0.7-4-0.6-7.5-4-9.5c-3.6-2.1-7.6-3.8-11.6-5
				c-7.9-2.4-16-4.3-23.8-6.7c-6.5-2-12.5-5.1-17.2-10.2c-4.1-4.5-6-9.9-6.4-15.9c-1-16.9,9.2-26.3,19.9-31.1
				c6.8-3,13.9-3.7,21.1-4.1c2.1-0.1,4.3-0.3,6.2-1c16.8-6.1,29.8-16.8,39-32.1c1-1.6,1.8-3.2,2.7-4.9c0.1-0.1,0.1-0.2,0.1-0.4
				C141.9,78.1,141.8,78,141.7,77.9z"/>
			<path class="st0" d="M445.4,218.9c0,2.7,0,5.2,0,7.9c-7.9,0-15.7,0-23.5,0c0-39.9,0-79.8,0-119.8c0.7,0,1.3-0.1,1.9-0.1
				c6.5,0,13,0.1,19.5,0c1.8,0,2.2,0.6,2.2,2.3c-0.1,17.7,0,35.3,0,53c0,0.8,0,1.6,0,3c0.9-0.8,1.3-1.1,1.6-1.5
				c5-5.2,11.2-7.6,18.2-8.5c20.3-2.5,35.6,12.3,38.9,29.1c4,20.4-8.6,39.3-26.6,43.4c-8.7,2-17.3,1-25.2-3.3
				C450,222.9,447.9,220.8,445.4,218.9z M479.6,191.7c0-9.8-7.6-17.8-17-17.9c-9.2,0-17.1,8.1-17.1,17.8
				c-0.1,9.8,7.7,17.9,17.2,17.9C472,209.5,479.6,201.5,479.6,191.7z"/>
			<path class="st0" d="M382.4,226.8c0-2.7,0-5.3,0-7.9c-0.3,0-0.5,0-0.5,0c-4.6,5.7-11,8-18,9c-10.2,1.5-19.6-0.7-27.6-7.4
				c-8.8-7.4-13.2-17-13.4-28.5c-0.3-16.1,9.7-30.9,24.4-35.6c10.2-3.3,20.1-2.4,29.3,3.4c2,1.3,3.6,3,5.6,4.7c0-19.2,0-38.3,0-57.6
				c0.8-0.1,1.4-0.2,2-0.2c6.6,0,13.2,0,19.8,0c1.4,0,2,0.3,2,1.9c0,38.9,0,77.7,0,116.6c0,0.4-0.1,0.9-0.1,1.5
				C398.2,226.8,390.5,226.8,382.4,226.8z M382.4,191.8c0-9.9-7.7-17.9-17.1-17.9c-9.3,0-17.1,8-17.1,17.7c0,10,7.5,17.9,17,18
				C374.8,209.5,382.4,201.6,382.4,191.8z"/>
			<path class="st0" d="M101.7,239.2c2.3-0.2,4.5-0.2,6.7-0.7c2.1-0.5,4.1-1.5,6.3-2.3c0.3,0.5,0.6,1.1,0.9,1.6
				c22.8,39.6,56.5,64.5,100.9,74.9c12.2,2.9,24.6,4.3,37,3.7c58-2.6,102.3-28.5,131.9-78.7c0.7-1.2,1.4-1.7,2.8-1.7
				c4.2,0.1,8.3,0,12.9,0c-10,20.5-23.4,38-40.4,52.6c-27.9,23.9-60.3,37.6-96.9,40.3C180,335.2,122.5,283.1,101.7,239.2z"/>
			<path class="st0" d="M227.3,194.6c-18.4,0-36.5,0-54.5,0c-1.5,5.8,4.1,14.2,10.6,16.3c6.2,2,16.6-0.2,18.9-9.9
				c7.9,0,15.7,0,23.9,0c-0.3,1.2-0.6,2.3-0.9,3.4c-3.5,10.3-10.3,17.6-20.5,21.2c-12.6,4.4-25.3,3.9-37.5-1.7
				c-11.5-5.3-18.1-14.6-19.6-27.3c-2.4-20.2,9.9-36.9,30.1-40.8c10.4-2,20.6-1.5,30.3,3.1c11.7,5.5,18.3,14.8,19.3,27.8
				C227.5,189.3,227.3,191.8,227.3,194.6z M188.7,183.6c4.7,0,9.5,0,14.2,0c1,0,2,0.1,1.6-1.5c-1.2-4.9-3.6-8.9-8.5-10.7
				c-2.7-1-5.7-1.3-8.6-1.4c-7.2-0.1-12.6,4.4-14.4,11.3c-0.5,2-0.3,2.3,1.7,2.3C179.4,183.6,184.1,183.6,188.7,183.6z"/>
			<path class="st0" d="M260.6,194.6c-1,7,4.7,15,11.7,16.7c6.2,1.5,15.7-1,17.8-10.2c7.9,0,15.7,0,23.7,0c0,0.4,0,0.8-0.1,1.1
				c-3.1,11.5-10.1,19.6-21.3,23.5c-12.7,4.4-25.4,3.9-37.6-1.9c-11.3-5.4-17.8-14.5-19.3-27.1c-2.4-20.3,9.9-36.9,30.1-40.8
				c10.9-2.1,21.6-1.4,31.7,3.8c10.9,5.7,16.9,14.8,18,27.1c0.1,1.5,0.2,2.9,0.2,4.4c0,1.1-0.2,2.2-0.4,3.5
				C296.8,194.6,278.7,194.6,260.6,194.6z M292.4,183.4c0.3-8-7.5-13.9-17.5-13.5c-7.6,0.3-14.7,7-13.9,13.5
				C271.4,183.4,281.9,183.4,292.4,183.4z"/>
			<path class="st0" d="M553.4,228.5c-11.7-0.3-21.6-2.9-29.7-10.2c-6.6-6-10.2-13.5-11.1-22.4c-2.3-21.8,13.3-37.2,32.3-40.1
				c12.6-1.9,24.2,0.3,34.3,8.2c10,7.9,14.1,18.5,13.2,31.2c-1.2,17.3-14.3,29.9-31.9,32.5C557.8,228.1,555.1,228.3,553.4,228.5z
				 M535.8,191.7c0.2,2.2,0.3,4,0.6,5.8c1.2,6.3,4.5,11,11,12.5c2.4,0.6,5,0.7,7.4,0.5c6.3-0.3,11.2-4.1,12.8-10.1
				c0.9-3.5,1.3-7.2,1.2-10.8c-0.3-9.6-6.1-15.3-15.6-15.9c-8.4-0.5-14.6,3.9-16.6,12.1C536.2,187.8,536.1,190,535.8,191.7z"/>
			<path class="st0" d="M401.2,97.4c-4.1,0-7.9-0.1-11.8,0.1c-2.2,0.1-3.2-0.6-4.3-2.5c-22.3-38.8-55.4-63.4-98.8-74.2
				c-12.3-3.1-24.9-4.4-37.6-4.2c-24.8,0.4-48.2,6.1-70.2,17.5c-0.7,0.4-1.4,0.7-2.3,1.1c-0.2-0.7-0.4-1.2-0.4-1.7
				c0.2-4,0.4-8.1,0.7-12.1c0.1-0.6,0.9-1.3,1.5-1.6c10.4-5,21.3-8.8,32.5-11.5c15.7-3.8,31.6-5.4,47.7-4.6
				c60.3,2.9,114.8,37.4,142,91.7C400.6,96,400.8,96.6,401.2,97.4z"/>
			<path class="st0" d="M604.6,106.9c1.5,0,2.9,0,4.3,0c5.6,0,11.3,0.1,16.9,0c1.8,0,2.4,0.4,2.4,2.3c-0.1,15.7,0,31.3,0,47
				c0,22.7,0,45.4,0,68.2c0,0.8,0,1.5,0,2.5c-7.9,0-15.7,0-23.6,0C604.6,186.9,604.6,147.1,604.6,106.9z"/>
		</g>
	</g>
</g>
<g>
</g>
<g>
</g>
<g>
</g>
<g>
</g>
<g>
</g>
<g>
</g>
<g>
</g>
<g>
</g>
<g>
</g>
<g>
</g>
<g>
</g>
<g>
</g>
<g>
</g>
<g>
</g>
<g>
</g>
</svg>
