<svg xmlns="http://www.w3.org/2000/svg" viewBox="0 0 640 333"><path d="M440.3 269.1H431l-15.2-8.9v8.9h-6v-19.7h6v8l14.2-8h8.5l-16.7 9.1 18.5 10.6zm10.9 0h-5.9v-19.7h5.9v19.7zm37-16.2h-11.8V269h-5.9v-16.1h-11.7v-3.5h29.3v3.5zm32.7 11.5c0 1.9-.5 3.1-1.4 3.7-.9.6-2.6.9-5 .9h-15.1c-2.4 0-4-.3-4.9-.9-.9-.6-1.4-1.9-1.4-3.7V254c0-1.9.5-3.1 1.4-3.7.9-.6 2.6-.9 4.9-.9h15.1c3 0 4.9.5 5.6 1.5.5.7.7 2.4.7 5l-6 .7V253H499v12.3h15.9v-4.2l6 1v2.3zm40 4.7H555v-8.3h-18.5v8.3h-6v-19.7h6v7.5H555v-7.5h5.9v19.7zm37.1 0h-26.3v-19.7h26v3.5h-20.1v4.3h11.7v3.4h-11.7v4.8H598v3.7zm38.6 0h-4.1L612 255.8v13.3h-5.4v-19.7h4.1l20.6 13.1v-13.1h5.3v19.7zM141.7 77.9c-.4.5-.8.9-1.2 1.4-10.7 10.9-22 20.9-36.3 26.9-5.6 2.3-11.4 3.8-17.5 4.1-1.4.1-2-.4-2.5-1.7-4.7-12.3-7.3-24.9-8.3-38-.9-11.2 1.6-21.6 5.5-31.8.4-1.2 1.1-2.3 1.6-3.4-.3-.2-.5-.4-.8-.6-.2.5-.3 1-.6 1.4-7.7 10.4-11.9 22.1-11.5 35 .2 6.6 1.8 13.2 3.2 19.7 1.3 6.1 3.1 12 4.5 18.2C65 86.2 46.2 71.2 20.5 65.2c-.1.2-.3.4-.4.6.5.3 1.1.7 1.6.9C35.3 73.8 48 82.1 58.8 93c5.2 5.2 9.7 11 12.6 17.8.3.6.5 1.3.8 2 .1.2 0 .4.1.9-2.2-.5-4.3-1-6.4-1.4-3.7-.7-7.4-1.6-11.1-2.1-5.7-.8-10.8 1.1-15.4 4.3-4.7 3.2-8.3 7.3-10.9 12.6l1.5-1.2c2.3-2 4.5-4.2 7-6.1 5.5-4.3 11.9-5.2 18.6-4 .2 0 .4.1.5.2.1.1.2.2.5.3-4 7.1-8.3 13.9-15.8 17.8-6.1 3.2-15.1 2.8-20.2-.8 3.8-8 7.9-16 14.3-22.4 3.1-3.1 6.9-4.9 11.2-6.1-.6-.3-1.1-.6-1.7-.9-12-6.2-22.7-13.8-30.9-24.7-4.8-6.3-8-13.4-9.8-21.2-.1-.5-.1-1-.2-1.7 21.8-.7 41.5 4.5 58.7 19-.2-1.8-.3-3-.5-4.3-1-9.4 1-18.1 5.5-26.3 5.3-9.6 12.4-17.9 20.4-25.7 6.2 8.5 9.8 17.8 10.9 28.1 1.2 10.4-1.1 20.1-6.4 29.5.6-.2.8-.2.9-.3 6.1-6.5 13.9-10.2 21.9-13.7 9.1-3.9 18.2-7.7 27.1-12.1 7-3.4 13.2-8 18.3-13.9 1.5-1.7 2.8-3.5 3.9-5.5 1.1-1.9 2-4 2.9-5.9 0 3.4.2 6.9 0 10.5-1.8 23.1-8.7 44.6-21 64.4-4.1 6.6-8.2 13.2-13.9 18.6-2.4 2.3-5.1 4.3-7.8 6.7 8.1 6.4 12 15 12.4 25.5H114c-.2-.8-.4-1.7-.6-2.6-1.3-5.9-4.7-9.9-10.7-11.3-5.7-1.4-11.4-1.5-17 .5-1.7.6-3.4 1.6-4.8 2.7-5.1 4.2-4.6 11.1.9 14.6 4.2 2.7 9 3.7 13.7 4.9 8 2.1 16 4.1 23.9 6.6 3.7 1.2 7.1 3.3 10.3 5.5 7.3 5 10.6 12.4 10.9 21.1.4 11.6-3.4 21.3-13.2 28.1-5.5 3.9-11.7 6.1-18.3 7.3-12.4 2.3-24.7 1.9-36.5-2.9-12-4.8-19.9-13.3-22.5-26.3-.3-1.4-.5-2.8-.6-4.2-.1-1.1 0-2.2 0-3.4.6-.1 1.2-.1 1.8-.1h20.2c1.2 0 1.9.2 2.1 1.6 1.3 9.2 7.1 15.2 16.5 16.8 6 1.1 11.9.8 17.6-1.5 4.1-1.7 7.4-4.3 8.3-9.1.7-4-.6-7.5-4-9.5-3.6-2.1-7.6-3.8-11.6-5-7.9-2.4-16-4.3-23.8-6.7-6.5-2-12.5-5.1-17.2-10.2-4.1-4.5-6-9.9-6.4-15.9-1-16.9 9.2-26.3 19.9-31.1 6.8-3 13.9-3.7 21.1-4.1 2.1-.1 4.3-.3 6.2-1 16.8-6.1 29.8-16.8 39-32.1 1-1.6 1.8-3.2 2.7-4.9.1-.1.1-.2.1-.4-.1-.2-.2-.3-.3-.4zm303.7 141v7.9h-23.5V107c.7 0 1.3-.1 1.9-.1 6.5 0 13 .1 19.5 0 1.8 0 2.2.6 2.2 2.3-.1 17.7 0 35.3 0 53v3c.9-.8 1.3-1.1 1.6-1.5 5-5.2 11.2-7.6 18.2-8.5 20.3-2.5 35.6 12.3 38.9 29.1 4 20.4-8.6 39.3-26.6 43.4-8.7 2-17.3 1-25.2-3.3-2.4-1.5-4.5-3.6-7-5.5zm34.2-27.2c0-9.8-7.6-17.8-17-17.9-9.2 0-17.1 8.1-17.1 17.8-.1 9.8 7.7 17.9 17.2 17.9 9.3 0 16.9-8 16.9-17.8zm-97.2 35.1v-7.9h-.5c-4.6 5.7-11 8-18 9-10.2 1.5-19.6-.7-27.6-7.4-8.8-7.4-13.2-17-13.4-28.5-.3-16.1 9.7-30.9 24.4-35.6 10.2-3.3 20.1-2.4 29.3 3.4 2 1.3 3.6 3 5.6 4.7v-57.6c.8-.1 1.4-.2 2-.2H404c1.4 0 2 .3 2 1.9v116.6c0 .4-.1.9-.1 1.5-7.7.1-15.4.1-23.5.1zm0-35c0-9.9-7.7-17.9-17.1-17.9-9.3 0-17.1 8-17.1 17.7 0 10 7.5 17.9 17 18 9.6-.1 17.2-8 17.2-17.8zm-280.7 47.4c2.3-.2 4.5-.2 6.7-.7 2.1-.5 4.1-1.5 6.3-2.3.3.5.6 1.1.9 1.6 22.8 39.6 56.5 64.5 100.9 74.9 12.2 2.9 24.6 4.3 37 3.7 58-2.6 102.3-28.5 131.9-78.7.7-1.2 1.4-1.7 2.8-1.7 4.2.1 8.3 0 12.9 0-10 20.5-23.4 38-40.4 52.6-27.9 23.9-60.3 37.6-96.9 40.3-83.8 6.3-141.3-45.8-162.1-89.7zm125.6-44.6h-54.5c-1.5 5.8 4.1 14.2 10.6 16.3 6.2 2 16.6-.2 18.9-9.9h23.9c-.3 1.2-.6 2.3-.9 3.4-3.5 10.3-10.3 17.6-20.5 21.2-12.6 4.4-25.3 3.9-37.5-1.7-11.5-5.3-18.1-14.6-19.6-27.3-2.4-20.2 9.9-36.9 30.1-40.8 10.4-2 20.6-1.5 30.3 3.1 11.7 5.5 18.3 14.8 19.3 27.8.1 2.6-.1 5.1-.1 7.9zm-38.6-11h14.2c1 0 2 .1 1.6-1.5-1.2-4.9-3.6-8.9-8.5-10.7-2.7-1-5.7-1.3-8.6-1.4-7.2-.1-12.6 4.4-14.4 11.3-.5 2-.3 2.3 1.7 2.3h14zm71.9 11c-1 7 4.7 15 11.7 16.7 6.2 1.5 15.7-1 17.8-10.2h23.7c0 .4 0 .8-.1 1.1-3.1 11.5-10.1 19.6-21.3 23.5-12.7 4.4-25.4 3.9-37.6-1.9-11.3-5.4-17.8-14.5-19.3-27.1-2.4-20.3 9.9-36.9 30.1-40.8 10.9-2.1 21.6-1.4 31.7 3.8 10.9 5.7 16.9 14.8 18 27.1.1 1.5.2 2.9.2 4.4 0 1.1-.2 2.2-.4 3.5-18.3-.1-36.4-.1-54.5-.1zm31.8-11.2c.3-8-7.5-13.9-17.5-13.5-7.6.3-14.7 7-13.9 13.5h31.4zm261 45.1c-11.7-.3-21.6-2.9-29.7-10.2-6.6-6-10.2-13.5-11.1-22.4-2.3-21.8 13.3-37.2 32.3-40.1 12.6-1.9 24.2.3 34.3 8.2 10 7.9 14.1 18.5 13.2 31.2-1.2 17.3-14.3 29.9-31.9 32.5-2.7.4-5.4.6-7.1.8zm-17.6-36.8c.2 2.2.3 4 .6 5.8 1.2 6.3 4.5 11 11 12.5 2.4.6 5 .7 7.4.5 6.3-.3 11.2-4.1 12.8-10.1.9-3.5 1.3-7.2 1.2-10.8-.3-9.6-6.1-15.3-15.6-15.9-8.4-.5-14.6 3.9-16.6 12.1-.4 2-.5 4.2-.8 5.9zM401.2 97.4c-4.1 0-7.9-.1-11.8.1-2.2.1-3.2-.6-4.3-2.5-22.3-38.8-55.4-63.4-98.8-74.2-12.3-3.1-24.9-4.4-37.6-4.2-24.8.4-48.2 6.1-70.2 17.5-.7.4-1.4.7-2.3 1.1-.2-.7-.4-1.2-.4-1.7.2-4 .4-8.1.7-12.1.1-.6.9-1.3 1.5-1.6 10.4-5 21.3-8.8 32.5-11.5 15.7-3.8 31.6-5.4 47.7-4.6 60.3 2.9 114.8 37.4 142 91.7.4.6.6 1.2 1 2zm203.4 9.5h4.3c5.6 0 11.3.1 16.9 0 1.8 0 2.4.4 2.4 2.3-.1 15.7 0 31.3 0 47v70.7h-23.6v-120z" fill="#389a00"/></svg>