<svg width="165" height="86" viewBox="0 0 165 86" fill="none" xmlns="http://www.w3.org/2000/svg"><path d="M113.515 69.497h-2.398l-3.919-2.298v2.298h-1.547V64.41h1.547v2.066l3.661-2.066h2.192l-4.306 2.35 4.77 2.737zm2.81 0h-1.521V64.41h1.521v5.087zm9.539-4.183h-3.042v4.158h-1.521v-4.158h-3.017v-.904h7.554v.904h.026zm8.43 2.97c0 .49-.129.8-.361.955-.232.155-.67.233-1.289.233h-3.893c-.619 0-1.031-.078-1.263-.233-.232-.155-.361-.49-.361-.956v-2.685c0-.491.129-.8.361-.956.232-.155.67-.232 1.263-.232h3.893c.774 0 1.263.129 1.444.387.129.18.18.62.18 1.291l-1.547.181v-.93h-4.073v3.177h4.099v-1.085l1.547.259v.594zm10.313 1.213h-1.521v-2.143h-4.77v2.143h-1.546V64.41h1.546v1.937h4.77V64.41h1.521v5.087zm9.565 0h-6.78V64.41h6.703v.904h-5.182v1.11h3.016v.878h-3.016v1.24h5.259v.955zm9.951 0h-1.057l-5.285-3.434v3.434h-1.392V64.41h1.057l5.311 3.383V64.41h1.366v5.087zM36.532 20.118c-.103.13-.206.233-.31.362-2.758 2.815-5.671 5.398-9.358 6.947-1.444.594-2.939.982-4.512 1.059-.36.026-.515-.103-.644-.44-1.212-3.176-1.882-6.43-2.14-9.813-.232-2.892.412-5.578 1.418-8.213.103-.31.284-.593.412-.878-.077-.051-.128-.103-.206-.155-.051.13-.077.259-.154.362-1.986 2.686-3.069 5.707-2.965 9.04.051 1.704.464 3.408.825 5.087.335 1.575.799 3.099 1.16 4.7-3.3-5.914-8.147-9.788-14.773-11.337-.026.051-.077.103-.103.155.129.077.284.18.413.232 3.506 1.834 6.78 3.977 9.564 6.792 1.341 1.343 2.501 2.84 3.249 4.597.077.155.129.336.206.517.026.051 0 .103.026.232-.567-.13-1.109-.258-1.65-.361-.954-.181-1.908-.414-2.862-.543-1.47-.207-2.784.284-3.97 1.11a8.206 8.206 0 00-2.81 3.255l.386-.31c.593-.517 1.16-1.085 1.805-1.576 1.418-1.11 3.068-1.343 4.795-1.033.052 0 .104.026.13.052.025.026.05.052.128.078-1.031 1.833-2.14 3.59-4.073 4.596-1.573.827-3.893.724-5.208-.206.98-2.066 2.037-4.132 3.687-5.785.799-.8 1.779-1.265 2.887-1.575-.155-.078-.283-.155-.438-.233-3.094-1.601-5.852-3.564-7.967-6.379-1.237-1.627-2.062-3.46-2.526-5.475-.026-.13-.026-.258-.052-.439 5.62-.18 10.7 1.162 15.134 4.907-.052-.465-.077-.775-.129-1.11-.258-2.428.258-4.675 1.418-6.793 1.366-2.48 3.197-4.623 5.26-6.637 1.598 2.195 2.526 4.597 2.81 7.257.309 2.686-.284 5.191-1.65 7.619.154-.052.206-.052.232-.078 1.572-1.678 3.583-2.634 5.646-3.538 2.346-1.007 4.692-1.989 6.986-3.125 1.805-.878 3.404-2.066 4.718-3.59a7.85 7.85 0 001.006-1.42c.283-.49.515-1.033.748-1.524 0 .878.051 1.782 0 2.712-.465 5.966-2.244 11.518-5.415 16.632-1.057 1.704-2.114 3.409-3.583 4.803-.619.594-1.315 1.11-2.011 1.73 2.088 1.654 3.094 3.875 3.197 6.586H29.39c-.052-.206-.103-.439-.155-.671-.335-1.524-1.212-2.557-2.759-2.918-1.47-.362-2.939-.388-4.383.129a4.497 4.497 0 00-1.237.697c-1.315 1.085-1.186 2.867.232 3.77 1.083.698 2.32.956 3.532 1.266 2.063.542 4.125 1.059 6.162 1.704.954.31 1.83.853 2.655 1.42 1.882 1.292 2.733 3.203 2.81 5.45.104 2.996-.876 5.501-3.403 7.257-1.418 1.007-3.016 1.575-4.718 1.885-3.197.594-6.368.491-9.41-.748-3.094-1.24-5.13-3.435-5.8-6.793a7.858 7.858 0 01-.155-1.084c-.026-.285 0-.569 0-.879.154-.025.31-.025.464-.025h5.208c.309 0 .49.051.541.413.335 2.376 1.83 3.925 4.254 4.339 1.547.284 3.068.206 4.537-.388 1.057-.439 1.908-1.11 2.14-2.35.18-1.033-.154-1.937-1.031-2.453a13.955 13.955 0 00-2.99-1.292c-2.037-.62-4.126-1.11-6.137-1.73-1.675-.517-3.222-1.317-4.434-2.634-1.057-1.162-1.547-2.557-1.65-4.106-.258-4.365 2.372-6.793 5.13-8.032 1.754-.775 3.584-.956 5.44-1.06.542-.025 1.109-.077 1.599-.257 4.331-1.576 7.683-4.34 10.055-8.29.257-.414.464-.827.696-1.266.025-.026.025-.052.025-.103a.355.355 0 00-.077-.104zm78.298 36.415v2.04h-6.059v-30.94c.181 0 .336-.025.49-.025 1.676 0 3.352.026 5.028 0 .464 0 .567.155.567.594-.026 4.571 0 9.116 0 13.687v.775c.232-.206.335-.284.412-.387 1.289-1.343 2.888-1.963 4.693-2.195 5.233-.646 9.178 3.176 10.028 7.515 1.032 5.268-2.217 10.15-6.857 11.208-2.243.517-4.461.259-6.497-.852-.619-.387-1.16-.93-1.805-1.42zm8.817-7.025c0-2.53-1.959-4.597-4.383-4.623-2.371 0-4.408 2.092-4.408 4.597-.026 2.531 1.985 4.623 4.434 4.623 2.398 0 4.357-2.066 4.357-4.597zm-25.059 9.065v-2.04h-.13c-1.185 1.472-2.835 2.066-4.64 2.324-2.63.387-5.053-.18-7.115-1.911-2.27-1.911-3.404-4.39-3.455-7.36-.078-4.158 2.5-7.98 6.29-9.194 2.63-.853 5.182-.62 7.554.878.516.335.928.774 1.444 1.213V27.608c.206-.026.361-.052.516-.052h5.104c.361 0 .516.078.516.49V58.16c0 .103-.026.232-.026.387-1.985.026-3.97.026-6.058.026zm0-9.04c0-2.556-1.985-4.622-4.409-4.622-2.398 0-4.409 2.066-4.409 4.571 0 2.583 1.934 4.623 4.383 4.649 2.475-.026 4.435-2.066 4.435-4.597zM26.22 61.775c.593-.051 1.16-.051 1.727-.18.541-.13 1.057-.388 1.624-.594.078.129.155.284.232.413C35.681 71.64 44.37 78.07 55.817 80.757c3.145.75 6.342 1.11 9.539.956 14.953-.671 26.374-7.36 34.005-20.325.18-.31.361-.439.722-.439 1.083.026 2.14 0 3.326 0-2.578 5.294-6.033 9.814-10.416 13.584-7.193 6.173-15.546 9.71-24.982 10.408-21.605 1.627-36.429-11.828-41.791-23.166zM58.6 50.257H44.55c-.387 1.498 1.057 3.667 2.733 4.21 1.598.516 4.28-.052 4.872-2.557h6.162c-.077.31-.155.594-.232.878-.902 2.66-2.656 4.545-5.285 5.475-3.249 1.136-6.523 1.007-9.668-.439-2.965-1.369-4.667-3.77-5.053-7.05-.619-5.217 2.552-9.53 7.76-10.537 2.681-.517 5.31-.388 7.812.8 3.016 1.42 4.717 3.822 4.975 7.18.026.671-.025 1.317-.025 2.04zm-9.951-2.84h3.66c.259 0 .517.025.413-.388-.309-1.266-.928-2.299-2.191-2.764-.696-.258-1.47-.335-2.217-.361-1.856-.026-3.249 1.136-3.713 2.918-.129.517-.077.594.439.594h3.609zm18.537 2.84c-.258 1.808 1.211 3.874 3.016 4.313 1.598.387 4.048-.258 4.589-2.634h6.11c0 .103 0 .206-.026.284-.799 2.97-2.603 5.062-5.491 6.069-3.274 1.136-6.549 1.007-9.694-.49-2.913-1.395-4.589-3.746-4.976-7-.618-5.242 2.553-9.53 7.76-10.537 2.81-.542 5.57-.361 8.173.982 2.81 1.472 4.357 3.822 4.64 6.999.027.387.052.749.052 1.136 0 .284-.051.568-.103.904-4.718-.026-9.384-.026-14.05-.026zm8.198-2.892c.077-2.067-1.934-3.59-4.512-3.487-1.96.078-3.79 1.808-3.583 3.487h8.095zm67.29 11.647c-3.017-.078-5.569-.749-7.657-2.634-1.702-1.55-2.63-3.487-2.862-5.785-.593-5.63 3.429-9.607 8.327-10.356 3.249-.491 6.239.077 8.843 2.117 2.578 2.04 3.635 4.778 3.403 8.058-.309 4.468-3.686 7.722-8.224 8.393-.696.104-1.392.155-1.83.207zm-4.538-9.504c.052.568.077 1.033.155 1.498.309 1.627 1.16 2.84 2.836 3.228.618.155 1.289.181 1.908.13 1.624-.078 2.887-1.06 3.3-2.609.232-.904.335-1.86.309-2.79-.077-2.479-1.573-3.95-4.022-4.106-2.166-.129-3.764 1.008-4.28 3.125-.103.517-.129 1.085-.206 1.524zm-34.702-24.354c-1.057 0-2.037-.025-3.042.026-.567.026-.825-.155-1.109-.645C93.534 14.515 85.001 8.16 73.811 5.372c-3.17-.8-6.419-1.137-9.693-1.085-6.394.103-12.427 1.575-18.099 4.52-.18.103-.36.18-.593.284-.051-.181-.103-.31-.103-.44.052-1.032.103-2.091.18-3.124.026-.155.233-.336.387-.413a42.014 42.014 0 018.38-2.97C58.316 1.162 62.415.749 66.566.956c15.546.749 29.597 9.658 36.609 23.682.103.155.155.31.258.516zm52.439 2.454h1.109c1.443 0 2.913.026 4.357 0 .464 0 .618.103.618.594-.025 4.054 0 8.083 0 12.138v18.259h-6.084V27.608z" fill="#fff"/></svg>